<svg width="23" height="23" viewBox="0 0 23 23" fill="none" xmlns="http://www.w3.org/2000/svg">
<path d="M10.8079 4.9104H10.3779V6.65107C7.14302 6.87349 4.57764 9.56904 4.57764 12.8593C4.57764 16.2946 7.37277 19.0895 10.8079 19.0895C14.0976 19.0895 16.7934 16.5236 17.0156 13.2892H18.7563V12.8593C18.756 8.47616 15.1905 4.9104 10.8079 4.9104ZM10.8079 18.2299C7.84591 18.2299 5.43698 15.8205 5.43698 12.859C5.43698 10.0422 7.61642 7.72499 10.3779 7.50536V13.289H16.161C15.9412 16.0502 13.6245 18.2299 10.8079 18.2299ZM17.0371 12.4296H11.2373V6.62933V5.78263C14.8048 5.99696 17.6694 8.8621 17.8838 12.4296H17.0371Z" fill="white"/>
</svg>
